<?xml version="1.0" encoding="UTF-8"?>
<svg id="Layer_1" data-name="Layer 1" xmlns="http://www.w3.org/2000/svg" viewBox="0 0 1235.6 936.83">
  <defs>
    <style>
      .cls-1 {
        fill: #003282;
      }

      .cls-1, .cls-2 {
        stroke-width: 0px;
      }

      .cls-3 {
        fill: #fff;
        stroke: #003282;
        stroke-miterlimit: 10;
        stroke-width: 8px;
      }

      .cls-2 {
        fill: gray;
      }
    </style>
  </defs>
  <g>
    <path class="cls-2" d="M609.91,209.18h-25.11v-10.45h61.19v10.45h-24.75v143.86h-11.33v-143.86Z"/>
    <path class="cls-2" d="M666.92,191.84v56.02c2.57-6.74,9.46-12.91,21.05-12.91,17.12,0,22.12,12.89,22.12,29.79v88.3h-11.33v-85.64c0-10.49-1.07-21.77-13.81-21.77-14.91,0-18.03,12.06-18.03,31.56v75.85h-11.33v-161.2h11.33Z"/>
    <path class="cls-2" d="M740.76,296.27v20.39c0,13.4,2.47,28.16,15.83,28.16,12.31,0,14.98-9.48,14.98-22.57v-1.24h11.21v1.04c0,14.38-3.51,32.84-26.47,32.84-20.47,0-26.76-14.2-26.76-37.88v-47c0-18.85,6.98-35.06,27.31-35.06s26.19,16.55,26.19,35.22v26.09h-42.28ZM771.91,286.45v-16.4c0-10.89-1.22-25.02-15.24-25.02s-15.86,11.76-15.86,25.21v16.21h31.11Z"/>
    <path class="cls-2" d="M598.04,390.73h11.25v77.69h.23c6.74-13.93,25.78-53.79,36.77-77.69h12.19l-30.44,62.12,33.76,92.19h-12.28l-28.8-80.29-11.45,22.11v58.18h-11.25v-154.31Z"/>
    <path class="cls-2" d="M674.99,428.8h11.33v116.24h-11.33v-116.24ZM675.03,383.84h11.33v22.77h-11.33v-22.77Z"/>
    <path class="cls-2" d="M709.18,463.86c0-23.13,0-28.97-.23-35.06h10.75c.27,2.58.54,6.27.54,12.37,3.47-9.77,10.87-14.22,21.21-14.22,11.72,0,22.23,6.33,22.23,27.26v90.83h-11.33v-88.5c0-11.79-3.89-18.9-13.78-18.9-10.8,0-18.07,5.16-18.07,31.55v75.85h-11.33v-81.18Z"/>
    <path class="cls-2" d="M838.41,383.84v132.87c0,11.06,0,21.67.23,28.33h-10.75c-.27-1.68-.54-8.15-.54-11.71-2.57,6.88-7.76,13.55-20.09,13.55-18.65,0-24.13-14.65-24.13-36.81v-49.15c0-20.79,8.44-33.98,25.78-33.98,11.47,0,16.06,5.34,18.17,9.09v-52.2h11.33ZM794.65,461.58v48.09c0,17.69,4.44,26.53,14.82,26.53,14.05,0,17.61-13.87,17.61-31.85v-39.95c0-12.94-1.35-26.77-16.99-26.77-10.76,0-15.44,9.27-15.44,23.94Z"/>
    <path class="cls-2" d="M861.4,463.86c0-23.13,0-28.97-.23-35.06h10.75c.27,2.58.54,6.27.54,12.37,3.46-9.77,10.87-14.22,21.21-14.22,11.72,0,22.23,6.33,22.23,27.26v90.83h-11.33v-88.5c0-11.79-3.89-18.9-13.78-18.9-10.8,0-18.07,5.16-18.07,31.55v75.85h-11.33v-81.18Z"/>
    <path class="cls-2" d="M946.57,488.26v20.39c0,13.4,2.47,28.16,15.83,28.16,12.31,0,14.98-9.48,14.98-22.57v-1.24h11.21v1.04c0,14.38-3.51,32.84-26.47,32.84-20.47,0-26.76-14.2-26.76-37.88v-47c0-18.85,6.98-35.06,27.31-35.06s26.19,16.55,26.19,35.22v26.09h-42.28ZM977.72,478.45v-16.4c0-10.89-1.22-25.02-15.24-25.02s-15.86,11.76-15.86,25.21v16.21h31.11Z"/>
    <path class="cls-2" d="M1014.28,511.78v4.96c0,14.19,6.24,20.08,15.18,20.08,10.62,0,14.72-6.76,14.72-19.55,0-13.88-4.17-19.38-16.83-27.88-15.27-10.24-22.2-18.24-22.2-34.01s6.7-28.42,24.85-28.42c19.61,0,24.27,13.79,24.27,28.56v5.78h-11.18v-5.88c0-11.15-2.97-18.38-13.44-18.38-9.19,0-13.02,6.25-13.02,17.23s3.24,15.57,15.61,24.01c14.77,9.98,23.48,17.95,23.48,37.19,0,20.23-8.33,31.43-26.97,31.43-20.39,0-26.04-14.22-26.04-29.8v-5.31h11.56Z"/>
    <path class="cls-2" d="M1078.72,511.78v4.96c0,14.19,6.24,20.08,15.18,20.08,10.62,0,14.72-6.76,14.72-19.55,0-13.88-4.17-19.38-16.83-27.88-15.27-10.24-22.2-18.24-22.2-34.01s6.7-28.42,24.85-28.42c19.61,0,24.27,13.79,24.27,28.56v5.78h-11.18v-5.88c0-11.15-2.97-18.38-13.44-18.38-9.19,0-13.02,6.25-13.02,17.23s3.24,15.57,15.61,24.01c14.77,9.98,23.48,17.95,23.48,37.19,0,20.23-8.33,31.43-26.97,31.43-20.39,0-26.04-14.22-26.04-29.8v-5.31h11.56Z"/>
    <path class="cls-2" d="M651.98,694.07v4.69c0,20.97-3.94,40.21-28.58,40.21s-28.98-19.69-28.98-41.74v-78.97c0-25.31,10.47-37.44,29.05-37.44,23.79,0,27.82,17.85,27.82,37.24v5.42h-11.71v-5.55c0-13.58-1.57-26.74-16.49-26.74-13.95,0-17.07,11.6-17.07,27.32v79.1c0,19.22,4.33,31.03,17.69,31.03,14.41,0,16.53-12.95,16.53-29.59v-4.97h11.75Z"/>
    <path class="cls-2" d="M669.91,660.49c0-18.35.04-30.47-.23-39.69h10.91c.23,3.63.5,8.78.5,17.7,4.08-13.33,13.93-18.77,23.69-19.16v14.03c-15.14.19-23.54,11.97-23.54,30.98v72.69h-11.33v-76.56Z"/>
    <path class="cls-2" d="M725.28,680.26v20.39c0,13.4,2.47,28.16,15.83,28.16,12.31,0,14.98-9.48,14.98-22.57v-1.24h11.21v1.04c0,14.38-3.51,32.84-26.47,32.84-20.47,0-26.76-14.2-26.76-37.88v-47c0-18.85,6.98-35.06,27.31-35.06s26.19,16.55,26.19,35.22v26.09h-42.28ZM756.42,670.45v-16.4c0-10.89-1.22-25.02-15.24-25.02s-15.86,11.76-15.86,25.21v16.21h31.11Z"/>
    <path class="cls-2" d="M833.06,719.55c0,8.36.19,14.78.46,17.5h-10.76c-.66-3.24-1-7.9-1.04-10.1-3.58,9.65-11.37,11.95-18.9,11.95-16.31,0-22.73-13.99-22.73-32.2v-2.08c0-24.64,14.2-35.13,34.75-35.13h6.73v-20.92c0-11.53-2.28-19.29-12.86-19.29s-13.67,7.99-13.67,18.41v3.95h-11.25v-3.87c0-15.81,6.31-28.8,25.27-28.8s24,12.9,24,28.89v71.71ZM821.84,679.18h-6.96c-15.01,0-23.49,6.61-23.49,25v2.04c0,11.93,3.39,22.09,13.81,22.09,12.79,0,16.64-10.83,16.64-29.44v-19.69Z"/>
    <path class="cls-2" d="M843.8,620.8h14.03v-29.03h11.13v29.03h17.66v10.22h-17.66v84.67c0,6.32,1.27,13,8.82,13,2.27,0,6.05-.23,7.98-.69v9.12c-3.19,1.11-7.87,1.38-11.52,1.38-8.96,0-16.41-4.66-16.41-20.71v-86.77h-14.03v-10.22Z"/>
    <path class="cls-2" d="M899.52,620.8h11.33v116.24h-11.33v-116.24ZM899.55,575.84h11.33v22.77h-11.33v-22.77Z"/>
    <path class="cls-2" d="M985.55,651.86v51.45c0,25.45-11.58,35.58-27.96,35.58s-27.31-9.63-27.31-34.62v-52.41c0-20.4,10.05-32.92,28-32.92s27.27,12.62,27.27,32.91ZM941.8,651.99v52.63c0,14.98,5.26,24.01,16.06,24.01,9.95,0,16.18-6.55,16.18-24.08v-52.59c0-13.2-4.79-22.74-16.02-22.74s-16.21,8.38-16.21,22.77Z"/>
    <path class="cls-2" d="M1005.08,655.86c0-23.13,0-28.97-.23-35.06h10.75c.27,2.58.54,6.27.54,12.37,3.46-9.77,10.87-14.22,21.21-14.22,11.72,0,22.23,6.33,22.23,27.26v90.83h-11.33v-88.5c0-11.79-3.89-18.9-13.78-18.9-10.8,0-18.07,5.17-18.07,31.55v75.85h-11.33v-81.18Z"/>
    <path class="cls-2" d="M598.04,774.73h49.3v10.45h-37.98v56.89h35.58v10.45h-35.58v76.52h-11.33v-154.31Z"/>
    <path class="cls-2" d="M713.9,843.86v51.45c0,25.45-11.58,35.58-27.96,35.58s-27.31-9.63-27.31-34.62v-52.41c0-20.4,10.05-32.92,28-32.92s27.27,12.62,27.27,32.91ZM670.15,843.99v52.63c0,14.98,5.26,24.01,16.06,24.01,9.95,0,16.18-6.55,16.18-24.08v-52.59c0-13.2-4.79-22.74-16.02-22.74s-16.21,8.38-16.21,22.77Z"/>
    <path class="cls-2" d="M786.89,899.45c0,13.59,0,24.49.23,29.6h-10.75c-.27-1.96-.54-8.08-.54-12.83-3.23,10.78-10.03,14.68-20.31,14.68-8.64,0-22.28-2.67-22.28-29.28v-88.81h11.33v85.79c0,15.98,4.17,21.8,13.97,21.8,8.59,0,17.03-5.04,17.03-32.25v-75.35h11.33v86.64Z"/>
    <path class="cls-2" d="M809.89,847.86c0-23.13,0-28.97-.23-35.06h10.75c.27,2.58.54,6.27.54,12.37,3.46-9.77,10.87-14.22,21.21-14.22,11.72,0,22.23,6.33,22.23,27.26v90.83h-11.33v-88.5c0-11.79-3.89-18.9-13.78-18.9-10.8,0-18.07,5.17-18.07,31.55v75.85h-11.33v-81.18Z"/>
    <path class="cls-2" d="M939.12,767.84v132.87c0,11.06,0,21.67.23,28.33h-10.75c-.27-1.68-.54-8.15-.54-11.71-2.57,6.88-7.76,13.55-20.09,13.55-18.65,0-24.13-14.65-24.13-36.81v-49.15c0-20.79,8.44-33.98,25.78-33.98,11.46,0,16.06,5.34,18.17,9.09v-52.21h11.33ZM895.37,845.58v48.09c0,17.69,4.44,26.53,14.82,26.53,14.05,0,17.61-13.87,17.61-31.85v-39.95c0-12.94-1.35-26.77-16.99-26.77-10.76,0-15.44,9.27-15.44,23.94Z"/>
    <path class="cls-2" d="M1009.08,911.55c0,8.36.19,14.78.46,17.5h-10.76c-.66-3.24-1-7.9-1.04-10.1-3.58,9.65-11.37,11.95-18.9,11.95-16.31,0-22.73-13.99-22.73-32.2v-2.08c0-24.64,14.2-35.13,34.75-35.13h6.73v-20.92c0-11.53-2.28-19.29-12.86-19.29s-13.67,7.99-13.67,18.41v3.95h-11.25v-3.87c0-15.81,6.31-28.8,25.27-28.8s24,12.9,24,28.89v71.71ZM997.86,871.18h-6.96c-15.01,0-23.49,6.61-23.49,25v2.04c0,11.93,3.39,22.09,13.81,22.09,12.79,0,16.64-10.83,16.64-29.44v-19.69Z"/>
    <path class="cls-2" d="M1019.81,812.8h14.03v-29.03h11.13v29.03h17.66v10.22h-17.66v84.67c0,6.32,1.27,13,8.82,13,2.27,0,6.05-.23,7.98-.69v9.12c-3.19,1.11-7.87,1.38-11.52,1.38-8.96,0-16.41-4.66-16.41-20.71v-86.77h-14.03v-10.22Z"/>
    <path class="cls-2" d="M1075.54,812.8h11.33v116.24h-11.33v-116.24ZM1075.57,767.84h11.33v22.77h-11.33v-22.77Z"/>
    <path class="cls-2" d="M1161.57,843.86v51.45c0,25.45-11.58,35.58-27.96,35.58s-27.31-9.63-27.31-34.62v-52.41c0-20.4,10.05-32.92,28-32.92s27.27,12.62,27.27,32.91ZM1117.81,843.99v52.63c0,14.98,5.26,24.01,16.06,24.01,9.95,0,16.18-6.55,16.18-24.08v-52.59c0-13.2-4.79-22.74-16.02-22.74s-16.21,8.38-16.21,22.77Z"/>
    <path class="cls-2" d="M1181.1,847.86c0-23.13,0-28.97-.23-35.06h10.75c.27,2.58.54,6.27.54,12.37,3.46-9.77,10.87-14.22,21.21-14.22,11.72,0,22.23,6.33,22.23,27.26v90.83h-11.33v-88.5c0-11.79-3.89-18.9-13.78-18.9-10.8,0-18.07,5.17-18.07,31.55v75.85h-11.33v-81.18Z"/>
  </g>
  <rect class="cls-1" x="222.46" width="128.96" height="936.83" rx="17.22" ry="17.22"/>
  <rect class="cls-1" x="222.46" y="-30.61" width="128.96" height="573.87" rx="17.22" ry="17.22" transform="translate(543.26 -30.61) rotate(90)"/>
  <path class="cls-1" d="M359.29,721.8c13.08,13.38,26.31,26.67,39.7,39.75,5.81,5.71,13.33,7.92,21.4,7.97,10.93.05,21.85,0,32.78,0v.05c11.23,0,22.41.05,33.58,0,5.36-.05,8.32,1.15,8.22,7.92-.15,10.78,8.32,16.54,16.44,20.9,7.67,4.11,14.18-.1,19.95-6.06,11.33-11.83,23.01-23.36,34.79-34.74,5.81-5.71,10.18-12.23,6.17-20-4.31-8.32-10.33-16.29-20.95-16.59-4.86-.15-8.02-1.75-11.68-4.56-16.74-12.93-35.14-18.85-56.24-12.38-4.21,1.25-8.52,2.36-12.88,2.96-13.83,1.9-26.87,1.2-35.64-12.23-1.9-2.96-5.01-5.21-7.62-7.77-8.32-8.22-13.08-8.87-22.36-2-2.66,1.95-4.21.9-6.27.25-6.67-2.16-12.63-.75-16.89,4.61-2.46,3.06-4.71,2.96-8.02,2.56-7.72-.95-13.93,2.11-17.44,9.07-3.66,7.22-2.81,14.34,2.96,20.3ZM406.76,713.33c-2.86,2.06-3.96,3.01-6.52.2-3.66-4.06-7.62-7.82-11.43-11.68-1.25-1.25-2.86-2.31-2.76-4.41.4-4.51,7.72-6.82,12.08-3.51,3.06,2.36,5.36,5.66,8.42,8.07,4.96,3.91,6.42,6.87.2,11.33ZM435.33,706.11c-11.58,4.61-16.74-3.01-22.61-9.07-1.8-1.9-5.11-3.66-1.8-6.87,2.66-2.61,5.56-2.56,8.22,0,5.36,5.11,10.58,10.33,16.19,15.94ZM502.55,776.84c-.05-3.41,2.31-5.26,4.31-7.27,12.23-12.33,24.51-24.61,36.84-36.84,6.12-6.12,8.97-5.76,16.14,1.3,7.62,7.57,8.02,10.43,1.7,16.79-12.23,12.38-24.61,24.56-36.84,36.94-3.21,3.21-7.02,5.76-10.93,3.01-4.91-3.51-10.28-7.17-11.23-13.93ZM364.91,703.31c3.21-3.46,7.87-4.96,11.18-1.85,9.72,9.12,21.2,16.69,27.07,29.37,3.41,7.32,8.92,11.38,17.04,11.43,10.68.05,21.3,0,31.98,0,2.91,0,6.42.05,6.52-3.76.1-4.56-3.86-4.06-6.92-4.06-8.32-.1-16.64-.05-24.96-.05-11.78,0-16.54-2.71-16.59-9.42-.1-6.82,4.76-9.67,16.29-9.77,22.76-.2,45.46.75,68.07-5.16,15.54-4.06,29.27,3.91,41.5,13.53,3.21,2.51,1.4,4.11-.6,6.06-8.52,8.37-16.99,16.84-25.36,25.36-5.56,5.61-10.43,12.68-20,6.82-1.3-.85-3.56-.25-5.36-.25-10.18,0-20.3,0-30.42,0-10.68,0-21.3-.1-31.98.05-8.27.15-15.09-2.66-20.9-8.62-9.07-9.32-18.35-18.4-27.52-27.62-3.31-3.31-6.82-6.42-9.72-10.07-3.11-3.91-2.96-8.27.7-11.98Z"/>
  <path class="cls-1" d="M214.58,435.03c-13.08-13.38-26.31-26.67-39.7-39.75-5.81-5.71-13.33-7.92-21.4-7.97-10.93-.05-21.85,0-32.78,0v-.05c-11.23,0-22.41-.05-33.58,0-5.36.05-8.32-1.15-8.22-7.92.15-10.78-8.32-16.54-16.44-20.9-7.67-4.11-14.18.1-19.95,6.06-11.33,11.83-23.01,23.36-34.79,34.74-5.81,5.71-10.18,12.23-6.17,20,4.31,8.32,10.33,16.29,20.95,16.59,4.86.15,8.02,1.75,11.68,4.56,16.74,12.93,35.14,18.85,56.24,12.38,4.21-1.25,8.52-2.36,12.88-2.96,13.83-1.9,26.87-1.2,35.64,12.23,1.9,2.96,5.01,5.21,7.62,7.77,8.32,8.22,13.08,8.87,22.36,2,2.66-1.95,4.21-.9,6.27-.25,6.67,2.16,12.63.75,16.89-4.61,2.46-3.06,4.71-2.96,8.02-2.56,7.72.95,13.93-2.11,17.44-9.07,3.66-7.22,2.81-14.34-2.96-20.3ZM167.11,443.5c2.86-2.06,3.96-3.01,6.52-.2,3.66,4.06,7.62,7.82,11.43,11.68,1.25,1.25,2.86,2.31,2.76,4.41-.4,4.51-7.72,6.82-12.08,3.51-3.06-2.36-5.36-5.66-8.42-8.07-4.96-3.91-6.42-6.87-.2-11.33ZM138.54,450.72c11.58-4.61,16.74,3.01,22.61,9.07,1.8,1.9,5.11,3.66,1.8,6.87-2.66,2.61-5.56,2.56-8.22,0-5.36-5.11-10.58-10.33-16.19-15.94ZM71.33,379.99c.05,3.41-2.31,5.26-4.31,7.27-12.23,12.33-24.51,24.61-36.84,36.84-6.12,6.12-8.97,5.76-16.14-1.3-7.62-7.57-8.02-10.43-1.7-16.79,12.23-12.38,24.61-24.56,36.84-36.94,3.21-3.21,7.02-5.76,10.93-3.01,4.91,3.51,10.28,7.17,11.23,13.93ZM208.96,453.52c-3.21,3.46-7.87,4.96-11.18,1.85-9.72-9.12-21.2-16.69-27.07-29.37-3.41-7.32-8.92-11.38-17.04-11.43-10.68-.05-21.3,0-31.98,0-2.91,0-6.42-.05-6.52,3.76-.1,4.56,3.86,4.06,6.92,4.06,8.32.1,16.64.05,24.96.05,11.78,0,16.54,2.71,16.59,9.42.1,6.82-4.76,9.67-16.29,9.77-22.76.2-45.46-.75-68.07,5.16-15.54,4.06-29.27-3.91-41.5-13.53-3.21-2.51-1.4-4.11.6-6.06,8.52-8.37,16.99-16.84,25.36-25.36,5.56-5.61,10.43-12.68,20-6.82,1.3.85,3.56.25,5.36.25h30.42c10.68,0,21.3.1,31.98-.05,8.27-.15,15.09,2.66,20.9,8.62,9.07,9.32,18.35,18.4,27.52,27.62,3.31,3.31,6.82,6.42,9.72,10.07,3.11,3.91,2.96,8.27-.7,11.98Z"/>
  <path class="cls-3" d="M291.04,509.25l-3.98,3.97-3.98-3.98c-28.81-28.28-75.09-27.86-103.37.95-27.92,28.43-27.92,73.99,0,102.42l3.98,3.98,103.37,103.37,103.37-103.37,3.98-3.98c28.15-28.94,27.5-75.22-1.44-103.37-28.37-27.59-73.56-27.59-101.93,0Z"/>
</svg>